<svg version="1.1" viewBox="10.444799999999999 7.6288 43.264 48.128" xmlns:xlink="http://www.w3.org/1999/xlink" xmlns="http://www.w3.org/2000/svg" style="max-height: 500px" width="43.264" height="48.128">
<g id="surface1">
<path d="M 32 0 C 14.328125 0 0 14.328125 0 32 C 0 49.671875 14.328125 64 32 64 C 49.671875 64 64 49.671875 64 32 C 64 14.328125 49.671875 0 32 0 Z M 17 20 C 15.34375 20 14 21.34375 14 23 C 14 24.65625 15.34375 26 17 26 L 47 26 C 48.65625 26 50 24.65625 50 23 C 50 21.34375 48.65625 20 47 20 Z M 23 30 C 21.34375 30 20 31.34375 20 33 C 20 34.65625 21.34375 36 23 36 L 41 36 C 42.65625 36 44 34.65625 44 33 C 44 31.34375 42.65625 30 41 30 Z M 25 43 C 25 41.34375 26.34375 40 28 40 L 36 40 C 37.65625 40 39 41.34375 39 43 C 39 44.65625 37.65625 46 36 46 L 28 46 C 26.34375 46 25 44.65625 25 43 Z M 25 43" style="stroke: none; fill-rule: evenodd; fill: rgb(0, 0, 0); fill-opacity: 1; --darkreader-inline-stroke: none; --darkreader-inline-fill: var(--darkreader-text-000000, #f2f0ed);" data-darkreader-inline-stroke="" data-darkreader-inline-fill=""/>
</g>
</svg>